<?xml version="1.0" encoding="UTF-8"?>
<svg width="14px" height="14px" viewBox="0 0 14 14" version="1.1" xmlns="http://www.w3.org/2000/svg" xmlns:xlink="http://www.w3.org/1999/xlink">
    <title>about-active</title>
    <g id="Symbols" stroke="none" stroke-width="1" fill="none" fill-rule="evenodd">
        <g id="Artboard" transform="translate(-48.000000, -48.000000)" fill="#FFFFFF" fill-rule="nonzero">
            <g id="about-active" transform="translate(48.000000, 48.000000)">
                <path d="M1.16666667,14 C1.16666667,14 0,14 0,12.8333333 C0,11.6666667 1.16666667,8.16666667 7,8.16666667 C12.8333333,8.16666667 14,11.6666667 14,12.8333333 C14,14 12.8333333,14 12.8333333,14 L1.16666667,14 Z M7,7 C8.93299662,7 10.5,5.43299662 10.5,3.5 C10.5,1.56700338 8.93299662,0 7,0 C5.06700338,0 3.5,1.56700338 3.5,3.5 C3.5,5.43299662 5.06700338,7 7,7 Z" id="Path"></path>
            </g>
        </g>
    </g>
</svg>