<?xml version="1.0" encoding="UTF-8"?>
<svg width="16px" height="15px" viewBox="0 0 16 15" version="1.1" xmlns="http://www.w3.org/2000/svg" xmlns:xlink="http://www.w3.org/1999/xlink">
    <title>blog-active</title>
    <g id="Symbols" stroke="none" stroke-width="1" fill="none" fill-rule="evenodd">
        <g id="Artboard" transform="translate(-46.000000, -108.000000)" fill="#FFFFFF" fill-rule="nonzero">
            <g id="blog-active" transform="translate(46.000000, 108.000000)">
                <path d="M16,7 C16,10.866 12.418,14 8,14 C7.20765176,14.0010681 6.41858679,13.8981905 5.653,13.694 C5.069,13.99 3.728,14.558 1.472,14.928 C1.272,14.96 1.12,14.752 1.199,14.566 C1.553,13.73 1.873,12.616 1.969,11.6 C0.744,10.37 0,8.76 0,7 C0,3.134 3.582,0 8,0 C12.418,0 16,3.134 16,7 Z M4.5,4 C4.22385763,4 4,4.22385763 4,4.5 C4,4.77614237 4.22385763,5 4.5,5 L11.5,5 C11.7761424,5 12,4.77614237 12,4.5 C12,4.22385763 11.7761424,4 11.5,4 L4.5,4 Z M4.5,6.5 C4.22385763,6.5 4,6.72385763 4,7 C4,7.27614237 4.22385763,7.5 4.5,7.5 L11.5,7.5 C11.7761424,7.5 12,7.27614237 12,7 C12,6.72385763 11.7761424,6.5 11.5,6.5 L4.5,6.5 Z M4.5,9 C4.22385763,9 4,9.22385763 4,9.5 C4,9.77614237 4.22385763,10 4.5,10 L8.5,10 C8.77614237,10 9,9.77614237 9,9.5 C9,9.22385763 8.77614237,9 8.5,9 L4.5,9 Z" id="Path"></path>
            </g>
        </g>
    </g>
</svg>