<?xml version="1.0" encoding="UTF-8"?>
<svg width="16px" height="12px" viewBox="0 0 16 12" version="1.1" xmlns="http://www.w3.org/2000/svg" xmlns:xlink="http://www.w3.org/1999/xlink">
    <title>contact-active</title>
    <g id="Symbols" stroke="none" stroke-width="1" fill="none" fill-rule="evenodd">
        <g id="Artboard" transform="translate(-47.000000, -140.000000)" fill="#FFFFFF" fill-rule="nonzero">
            <g id="contact-active" transform="translate(47.000000, 140.000000)">
                <path d="M9.23799858,6.82899895 L15.8079976,10.8559983 C15.4771009,11.5547305 14.7731209,12.0001692 13.9999978,11.9999991 L1.99999969,11.9999991 C1.22674405,12.0007389 0.522339811,11.5556676 0.190999971,10.8569983 L6.76099896,6.82999895 L7.99999877,7.58599883 L9.23799858,6.82899895 Z M0,2.69699959 L5.80299911,6.24299904 L0,9.80099849 L0,2.69699959 Z M15.9999975,2.69699959 L15.9999975,9.80099849 L10.1969984,6.24399904 L15.9999975,2.69699959 Z M13.9999978,0 C14.9331712,0 15.7423665,0.645218588 15.9499975,1.55499976 L7.99999877,6.41399901 L0.0499999923,1.55499976 C0.257631053,0.645218588 1.06682638,0 1.99999969,0 L13.9999978,0 Z" id="Path"></path>
            </g>
        </g>
    </g>
</svg>