<?xml version="1.0" encoding="UTF-8"?>
<svg width="14px" height="14px" viewBox="0 0 14 14" version="1.1" xmlns="http://www.w3.org/2000/svg" xmlns:xlink="http://www.w3.org/1999/xlink">
    <title>home</title>
    <g id="Symbols" stroke="none" stroke-width="1" fill="none" fill-rule="evenodd">
        <g id="Artboard" transform="translate(-24.000000, -18.000000)" fill="#EB1478" fill-rule="nonzero">
            <g id="home" transform="translate(24.142975, 18.000000)">
                <path d="M4.99968161,13.5000319 L4.99968161,9.99525567 C4.99968161,9.75027131 5.24966565,9.50028727 5.49964969,9.50028727 L7.49952202,9.50028727 C7.74950606,9.50028727 7.9994901,9.75027131 7.9994901,10.0002554 L7.9994901,13.5000319 C7.9994901,13.7761567 8.22333343,14 8.49945818,14 L12.4992028,14 C12.7753276,14 12.9991717,13.7761567 12.9991717,13.5000319 L12.9991717,6.50047878 C12.9994079,6.36778839 12.9468882,6.24044612 12.8531802,6.14650138 L11.4992667,4.79358775 L11.4992667,1.50079797 C11.4992667,1.22467322 11.2754233,1.00082989 10.9992986,1.00082989 L9.99936242,1.00082989 C9.72323768,1.00082989 9.49939434,1.22467322 9.49939434,1.50079797 L9.49939434,2.79371543 L6.85356326,0.146884406 C6.75976498,0.052848709 6.63240464,0 6.49958585,0 C6.36676707,0 6.23940673,0.052848709 6.14560845,0.146884406 L0.145991478,6.14650138 C0.0522835118,6.24044612 -0.000236182723,6.36778839 3.55271368e-15,6.50047878 L3.55271368e-15,13.5000319 C3.55271368e-15,13.7761567 0.223844133,14 0.49996888,14 L4.49971353,14 C4.77583828,14 4.99968161,13.7761567 4.99968161,13.5000319 Z" id="Path"></path>
            </g>
        </g>
    </g>
</svg>