<?xml version="1.0" encoding="UTF-8"?>
<svg width="16px" height="13px" viewBox="0 0 16 13" version="1.1" xmlns="http://www.w3.org/2000/svg" xmlns:xlink="http://www.w3.org/1999/xlink">
    <title>projects-active</title>
    <g id="Symbols" stroke="none" stroke-width="1" fill="none" fill-rule="evenodd">
        <g id="Artboard" transform="translate(-46.000000, -79.000000)" fill="#FFFFFF" fill-rule="nonzero">
            <g id="projects-active" transform="translate(46.000000, 79.000000)">
                <path d="M16,5.85 L16,11.5 C16,12.3284271 15.3284271,13 14.5,13 L1.5,13 C0.671572875,13 0,12.3284271 0,11.5 L0,5.85 L7.871,7.947 C7.95551916,7.96957006 8.04448084,7.96957006 8.129,7.947 L16,5.85 Z M9.5,0 C10.3284271,0 11,0.671572875 11,1.5 L11,2 L14.5,2 C15.3284271,2 16,2.67157288 16,3.5 L16,4.884 L8.386,6.914 C8.13307403,6.98135461 7.86692597,6.98135461 7.614,6.914 L0,4.884 L0,3.5 C0,2.67157288 0.671572875,2 1.5,2 L5,2 L5,1.5 C5,0.671572875 5.67157288,0 6.5,0 Z M9.5,1 L6.5,1 C6.22385763,1 6,1.22385763 6,1.5 L6,2 L10,2 L10,1.5 C10,1.22385763 9.77614237,1 9.5,1 Z" id="Path"></path>
            </g>
        </g>
    </g>
</svg>